# xmcd CD database file
#
# Track frame offsets:
#	150
#	13125
#	26975
#	35600
#	45862
#	58725
#	80037
#	89300
#	101475
#	111525
#	121900
#	135362
#	149800
#	166287
#	179687
#	189725
#	209137
#	224600
#
# Disc length: 3207 seconds
#
# Revision: 0
# Processed by: cddbd v1.4PL0 Copyright (c) Steve Scherf et al.
# Submitted via: CDex 1.40Beta5
#
DISCID=1a0c8512
DTITLE=Jimmy Little - The Best Of
DYEAR=1977
DGENRE=Country
TTITLE0=Baby Blue
TTITLE1=Gentle On My Mind
TTITLE2=I Can't Stop Loving You
TTITLE3=Danny Boy
TTITLE4=A Man Called Peter
TTITLE5=El Paso
TTITLE6=You'll Never Walk Alone
TTITLE7=Waltzing Matilda
TTITLE8=Royal Telephone
TTITLE9=A Tree In The Meadow
TTITLE10=Galway Bay
TTITLE11=Molly
TTITLE12=Old Shep
TTITLE13=Rock Island Line
TTITLE14=Velvet Waters
TTITLE15=Goodbye Old Rolf
TTITLE16=Beautiful Woman
TTITLE17=Is This Love
EXTD=YEAR: 1977 ID3G:   2
EXTT0=
EXTT1=
EXTT2=
EXTT3=
EXTT4=
EXTT5=
EXTT6=
EXTT7=
EXTT8=
EXTT9=
EXTT10=
EXTT11=
EXTT12=
EXTT13=
EXTT14=
EXTT15=
EXTT16=
EXTT17=
PLAYORDER=
